<?xml version="1.0" encoding="UTF-8" standalone="no" ?>
<!DOCTYPE svg PUBLIC "-//W3C//DTD SVG 1.1//EN" "http://www.w3.org/Graphics/SVG/1.1/DTD/svg11.dtd">
<svg xmlns="http://www.w3.org/2000/svg" xmlns:xlink="http://www.w3.org/1999/xlink" version="1.1" width="350" height="350" viewBox="0 0 350 350" xml:space="preserve">
<desc>Created with Fabric.js 1.7.22</desc>
<defs>
</defs>
<g id="icon" style="stroke: none; stroke-width: 1; stroke-dasharray: none; stroke-linecap: butt; stroke-linejoin: miter; stroke-miterlimit: 10; fill: none; fill-rule: nonzero; opacity: 1;" transform="translate(-1.9444444444444287 -1.9444444444444287) scale(3.89 3.89)" >
	<path d="M 63.246 36.72 l -0.78 -0.436 c -1.668 -0.931 -4.175 -3.043 -5.259 -4.432 c -2.44 -3.124 -2.854 -6.926 -0.983 -9.04 c 0.933 -1.053 2.236 -1.66 3.671 -1.709 c 1.149 -0.047 2.313 0.287 3.352 0.958 c 1.042 -0.675 2.202 -1.01 3.356 -0.957 c 1.43 0.049 2.733 0.655 3.666 1.709 c 1.871 2.115 1.457 5.917 -0.983 9.041 c -1.086 1.39 -3.593 3.502 -5.259 4.432 L 63.246 36.72 z M 60.087 23.1 c -0.041 0 -0.082 0.001 -0.123 0.002 c -0.882 0.03 -1.678 0.398 -2.242 1.036 c -1.212 1.37 -0.756 4.157 1.062 6.483 c 0.88 1.126 3.026 2.949 4.463 3.805 c 1.436 -0.855 3.582 -2.677 4.463 -3.805 c 1.817 -2.326 2.274 -5.113 1.063 -6.483 c -0.565 -0.638 -1.361 -1.006 -2.242 -1.036 c -0.914 -0.038 -1.832 0.299 -2.649 0.968 l -0.634 0.52 l -0.634 -0.52 C 61.836 23.433 60.965 23.1 60.087 23.1 z" style="stroke: none; stroke-width: 1; stroke-dasharray: none; stroke-linecap: butt; stroke-linejoin: miter; stroke-miterlimit: 10; fill: rgb(0,0,0); fill-rule: nonzero; opacity: 1;" transform=" matrix(1 0 0 1 0 0) " stroke-linecap="round" />
	<path d="M 68.677 51.851 c 0 -0.001 -0.001 -0.002 -0.001 -0.003 l 0 -9.904 c 0 -0.552 -0.447 -1 -1 -1 H 58.18 c -0.553 0 -1 0.448 -1 1 v 24.379 c 0 6.717 -5.464 12.181 -12.18 12.181 s -12.18 -5.464 -12.18 -12.18 v -24.38 c 0 -0.552 -0.448 -1 -1 -1 h -9.496 c -0.552 0 -1 0.448 -1 1 v 24.38 C 21.324 79.379 31.945 90 45 90 c 13.056 0 23.677 -10.621 23.677 -23.677 l -0.001 -14.469 C 68.676 51.853 68.677 51.852 68.677 51.851 z M 66.676 42.944 l 0 7.907 H 59.18 v -7.907 H 66.676 z M 30.82 42.944 v 7.907 h -7.496 v -7.907 H 30.82 z M 45 88 c -11.952 0 -21.676 -9.724 -21.676 -21.676 V 52.851 h 7.496 v 13.473 c 0 7.818 6.362 14.18 14.18 14.18 s 14.18 -6.361 14.18 -14.181 V 52.851 h 7.497 l 0.001 13.472 C 66.677 78.275 56.952 88 45 88 z" style="stroke: none; stroke-width: 1; stroke-dasharray: none; stroke-linecap: butt; stroke-linejoin: miter; stroke-miterlimit: 10; fill: rgb(0,0,0); fill-rule: nonzero; opacity: 1;" transform=" matrix(1 0 0 1 0 0) " stroke-linecap="round" />
	<path d="M 61.725 2.401 c -1.308 -1.476 -3.137 -2.327 -5.147 -2.396 c -1.746 -0.063 -3.468 0.461 -5.017 1.539 c -1.543 -1.071 -3.263 -1.588 -5.012 -1.54 c -2.015 0.07 -3.843 0.921 -5.151 2.397 c -1.506 1.702 -1.99 4.18 -1.4 6.936 H 22.361 c -1.862 0 -3.376 1.515 -3.376 3.376 v 11.735 c 0 1.862 1.515 3.376 3.376 3.376 h 1.459 v 5.253 c 0 0.388 0.225 0.742 0.577 0.906 c 0.135 0.063 0.28 0.094 0.423 0.094 c 0.23 0 0.458 -0.08 0.642 -0.233 l 7.193 -6.021 h 10.847 c 1.862 0 3.377 -1.515 3.377 -3.376 v -5.252 c 1.338 1.096 2.683 2.052 3.754 2.65 l 0.928 0.518 l 0.927 -0.518 c 2.453 -1.368 6.143 -4.477 7.74 -6.521 C 63.743 10.829 64.372 5.393 61.725 2.401 z M 44.88 24.449 c 0 0.759 -0.618 1.376 -1.377 1.376 H 32.292 c -0.235 0 -0.462 0.083 -0.642 0.233 l -5.83 4.879 v -4.112 c 0 -0.552 -0.448 -1 -1 -1 h -2.459 c -0.759 0 -1.376 -0.618 -1.376 -1.376 V 12.714 c 0 -0.759 0.618 -1.376 1.376 -1.376 h 21.142 c 0.759 0 1.377 0.618 1.377 1.376 V 24.449 z M 58.652 14.096 c -1.404 1.797 -4.899 4.742 -7.091 5.979 c -1.289 -0.728 -3.084 -2.079 -4.682 -3.511 v -3.85 c 0 -1.862 -1.515 -3.376 -3.377 -3.376 h -1.444 c -0.582 -2.274 -0.289 -4.337 0.837 -5.61 c 0.94 -1.061 2.262 -1.673 3.723 -1.724 c 1.496 -0.06 2.991 0.488 4.309 1.566 l 0.634 0.519 l 0.634 -0.519 c 1.322 -1.084 2.813 -1.625 4.31 -1.566 c 1.46 0.05 2.782 0.663 3.722 1.723 C 62.203 5.96 61.527 10.418 58.652 14.096 z" style="stroke: none; stroke-width: 1; stroke-dasharray: none; stroke-linecap: butt; stroke-linejoin: miter; stroke-miterlimit: 10; fill: rgb(0,0,0); fill-rule: nonzero; opacity: 1;" transform=" matrix(1 0 0 1 0 0) " stroke-linecap="round" />
	<path d="M 16.417 42.081 c -0.552 0 -1 -0.448 -1 -1 c 0 -2.439 0.757 -4.767 2.189 -6.733 c 0.325 -0.446 0.951 -0.545 1.397 -0.219 c 0.446 0.325 0.544 0.951 0.219 1.397 c -1.181 1.622 -1.806 3.543 -1.806 5.556 C 17.417 41.633 16.969 42.081 16.417 42.081 z" style="stroke: none; stroke-width: 1; stroke-dasharray: none; stroke-linecap: butt; stroke-linejoin: miter; stroke-miterlimit: 10; fill: rgb(0,0,0); fill-rule: nonzero; opacity: 1;" transform=" matrix(1 0 0 1 0 0) " stroke-linecap="round" />
	<path d="M 11.699 41.919 c -0.552 0 -1 -0.448 -1 -1 c 0 -3.483 1.091 -6.801 3.154 -9.595 c 0.328 -0.444 0.954 -0.539 1.398 -0.21 c 0.444 0.328 0.538 0.954 0.21 1.398 c -1.807 2.447 -2.763 5.354 -2.763 8.406 C 12.699 41.471 12.251 41.919 11.699 41.919 z" style="stroke: none; stroke-width: 1; stroke-dasharray: none; stroke-linecap: butt; stroke-linejoin: miter; stroke-miterlimit: 10; fill: rgb(0,0,0); fill-rule: nonzero; opacity: 1;" transform=" matrix(1 0 0 1 0 0) " stroke-linecap="round" />
	<path d="M 37.558 42.081 c -0.552 0 -1 -0.448 -1 -1 c 0 -2.012 -0.625 -3.934 -1.806 -5.556 c -0.325 -0.446 -0.227 -1.072 0.219 -1.397 c 0.447 -0.326 1.072 -0.227 1.397 0.219 c 1.433 1.967 2.19 4.295 2.19 6.733 C 38.558 41.633 38.11 42.081 37.558 42.081 z" style="stroke: none; stroke-width: 1; stroke-dasharray: none; stroke-linecap: butt; stroke-linejoin: miter; stroke-miterlimit: 10; fill: rgb(0,0,0); fill-rule: nonzero; opacity: 1;" transform=" matrix(1 0 0 1 0 0) " stroke-linecap="round" />
	<path d="M 42.276 41.919 c -0.552 0 -1 -0.448 -1 -1 c 0 -3.052 -0.956 -5.959 -2.763 -8.406 c -0.328 -0.444 -0.234 -1.07 0.21 -1.398 c 0.445 -0.329 1.071 -0.234 1.398 0.21 c 2.064 2.794 3.155 6.112 3.155 9.595 C 43.276 41.471 42.828 41.919 42.276 41.919 z" style="stroke: none; stroke-width: 1; stroke-dasharray: none; stroke-linecap: butt; stroke-linejoin: miter; stroke-miterlimit: 10; fill: rgb(0,0,0); fill-rule: nonzero; opacity: 1;" transform=" matrix(1 0 0 1 0 0) " stroke-linecap="round" />
	<path d="M 52.442 42.081 c -0.553 0 -1 -0.448 -1 -1 c 0 -2.438 0.757 -4.767 2.188 -6.733 c 0.325 -0.446 0.951 -0.544 1.397 -0.22 c 0.446 0.325 0.545 0.951 0.22 1.397 c -1.182 1.622 -1.806 3.543 -1.806 5.556 C 53.442 41.633 52.995 42.081 52.442 42.081 z" style="stroke: none; stroke-width: 1; stroke-dasharray: none; stroke-linecap: butt; stroke-linejoin: miter; stroke-miterlimit: 10; fill: rgb(0,0,0); fill-rule: nonzero; opacity: 1;" transform=" matrix(1 0 0 1 0 0) " stroke-linecap="round" />
	<path d="M 47.725 41.919 c -0.553 0 -1 -0.448 -1 -1 c 0 -3.484 1.091 -6.802 3.153 -9.595 c 0.328 -0.444 0.954 -0.539 1.398 -0.21 c 0.444 0.328 0.539 0.954 0.211 1.398 c -1.808 2.446 -2.763 5.353 -2.763 8.406 C 48.725 41.471 48.277 41.919 47.725 41.919 z" style="stroke: none; stroke-width: 1; stroke-dasharray: none; stroke-linecap: butt; stroke-linejoin: miter; stroke-miterlimit: 10; fill: rgb(0,0,0); fill-rule: nonzero; opacity: 1;" transform=" matrix(1 0 0 1 0 0) " stroke-linecap="round" />
	<path d="M 73.583 42.081 c -0.553 0 -1 -0.448 -1 -1 c 0 -2.013 -0.625 -3.934 -1.807 -5.556 c -0.325 -0.446 -0.227 -1.072 0.22 -1.397 c 0.446 -0.325 1.072 -0.227 1.397 0.219 c 1.433 1.966 2.189 4.294 2.189 6.733 C 74.583 41.633 74.136 42.081 73.583 42.081 z" style="stroke: none; stroke-width: 1; stroke-dasharray: none; stroke-linecap: butt; stroke-linejoin: miter; stroke-miterlimit: 10; fill: rgb(0,0,0); fill-rule: nonzero; opacity: 1;" transform=" matrix(1 0 0 1 0 0) " stroke-linecap="round" />
	<path d="M 78.301 41.919 c -0.553 0 -1 -0.448 -1 -1 c 0 -3.054 -0.955 -5.96 -2.763 -8.406 c -0.329 -0.444 -0.234 -1.07 0.209 -1.398 c 0.445 -0.329 1.071 -0.234 1.398 0.21 c 2.064 2.793 3.155 6.11 3.155 9.595 C 79.301 41.471 78.854 41.919 78.301 41.919 z" style="stroke: none; stroke-width: 1; stroke-dasharray: none; stroke-linecap: butt; stroke-linejoin: miter; stroke-miterlimit: 10; fill: rgb(0,0,0); fill-rule: nonzero; opacity: 1;" transform=" matrix(1 0 0 1 0 0) " stroke-linecap="round" />
	<path d="M 40.2 21.989 H 25.664 c -0.552 0 -1 -0.448 -1 -1 c 0 -0.552 0.448 -1 1 -1 H 40.2 c 0.552 0 1 0.448 1 1 C 41.2 21.541 40.752 21.989 40.2 21.989 z" style="stroke: none; stroke-width: 1; stroke-dasharray: none; stroke-linecap: butt; stroke-linejoin: miter; stroke-miterlimit: 10; fill: rgb(0,0,0); fill-rule: nonzero; opacity: 1;" transform=" matrix(1 0 0 1 0 0) " stroke-linecap="round" />
	<path d="M 40.2 16.874 H 25.664 c -0.552 0 -1 -0.448 -1 -1 s 0.448 -1 1 -1 H 40.2 c 0.552 0 1 0.448 1 1 S 40.752 16.874 40.2 16.874 z" style="stroke: none; stroke-width: 1; stroke-dasharray: none; stroke-linecap: butt; stroke-linejoin: miter; stroke-miterlimit: 10; fill: rgb(0,0,0); fill-rule: nonzero; opacity: 1;" transform=" matrix(1 0 0 1 0 0) " stroke-linecap="round" />
</g>
</svg>